<?xml version="1.0" encoding="UTF-8"?>
<!DOCTYPE svg PUBLIC "-//W3C//DTD SVG 1.1//EN" "http://www.w3.org/Graphics/SVG/1.1/DTD/svg11.dtd">
<!-- Creator: CorelDRAW -->
<svg xmlns="http://www.w3.org/2000/svg" xml:space="preserve" width="2048px" height="2048px" style="shape-rendering:geometricPrecision; text-rendering:geometricPrecision; image-rendering:optimizeQuality; fill-rule:evenodd; clip-rule:evenodd"
viewBox="0 0 2048 2048"
 xmlns:xlink="http://www.w3.org/1999/xlink">
 <defs>
  <style type="text/css">
   <![CDATA[
    .fil2 {fill:none}
    .fil1 {fill:#1E88E5}
    .fil0 {fill:#64B5F6}
    .fil6 {fill:#FFBC8F}
    .fil9 {fill:#424242;fill-rule:nonzero}
    .fil5 {fill:#616161;fill-rule:nonzero}
    .fil7 {fill:#E6A57A;fill-rule:nonzero}
    .fil8 {fill:#EBC09F;fill-rule:nonzero}
    .fil4 {fill:#FFBC8F;fill-rule:nonzero}
    .fil3 {fill:#FFD4B3;fill-rule:nonzero}
   ]]>
  </style>
   <clipPath id="id0">
    <path d="M1024 0c565.538,0 1024,458.462 1024,1024 0,565.538 -458.462,1024 -1024,1024 -565.538,0 -1024,-458.462 -1024,-1024 0,-565.538 458.462,-1024 1024,-1024z"/>
   </clipPath>
 </defs>
 <g id="Layer_x0020_1">
  <metadata id="CorelCorpID_0Corel-Layer"/>
  <path class="fil0" d="M1024 0c565.538,0 1024,458.462 1024,1024 0,565.538 -458.462,1024 -1024,1024 -565.538,0 -1024,-458.462 -1024,-1024 0,-565.538 458.462,-1024 1024,-1024z"/>
  <g style="clip-path:url(#id0)">
   <g id="_385694080">
    <g>
     <polygon id="_2861270641" class="fil1" points="880.798,791.333 2010.36,1927.22 2002.65,1935.52 873.092,799.633 "/>
     <polygon id="_286127112" class="fil1" points="1167.2,795.243 2296.76,1931.13 2296.71,1931.14 1167.15,795.259 "/>
     <polygon id="_286127760" class="fil1" points="1189.38,708.493 2318.94,1844.38 2318.88,1844.4 1189.32,708.513 "/>
     <polygon id="_286127808" class="fil1" points="1208.33,728.905 2337.89,1864.79 2318.94,1844.38 1189.38,708.493 "/>
     <polygon id="_286127952" class="fil1" points="1593.78,899.837 2723.34,2035.72 2724.17,2036.71 2724.85,2037.78 2725.39,2038.91 2725.78,2040.11 2726.05,2041.37 2726.18,2042.68 2726.2,2044.04 2726.1,2045.44 2725.89,2046.88 2725.58,2048.35 2725.18,2049.85 2724.69,2051.38 2724.11,2052.92 2723.46,2054.48 2722.74,2056.04 2721.95,2057.61 2721.1,2059.18 2720.21,2060.74 2719.26,2062.29 2718.28,2063.82 2717.26,2065.34 2716.22,2066.82 2715.15,2068.28 2714.07,2069.69 2712.99,2071.07 2711.9,2072.4 2710.81,2073.68 2709.73,2074.9 2708.67,2076.07 2707.63,2077.16 2706.62,2078.19 2705.65,2079.14 1576.09,943.253 1577.06,942.304 1578.07,941.28 1579.11,940.184 1580.17,939.022 1581.25,937.8 1582.34,936.52 1583.43,935.189 1584.51,933.812 1585.59,932.395 1586.66,930.94 1587.7,929.454 1588.72,927.942 1589.7,926.409 1590.65,924.859 1591.54,923.298 1592.39,921.731 1593.18,920.161 1593.9,918.596 1594.55,917.038 1595.13,915.494 1595.62,913.97 1596.02,912.468 1596.33,910.994 1596.54,909.555 1596.64,908.154 1596.62,906.796 1596.49,905.486 1596.22,904.229 1595.83,903.031 1595.29,901.896 1594.61,900.83 "/>
     <polygon id="_286128984" class="fil1" points="1576.09,943.253 2705.65,2079.14 2634.71,2146.55 1505.15,1010.67 "/>
     <polygon id="_286128696" class="fil1" points="1505.15,1010.67 2634.71,2146.55 2634.74,2146.61 1505.18,1010.73 "/>
     <polygon id="_286128768" class="fil1" points="1454.74,994.265 2584.3,2130.15 2544.38,2168.08 1414.82,1032.2 "/>
     <polygon id="_286128840" class="fil1" points="1467.76,1008.29 2597.32,2144.17 2584.3,2130.15 1454.74,994.265 "/>
     <polygon id="_286128936" class="fil1" points="1469.1,1009.81 2598.66,2145.69 2598.48,2145.5 2598.31,2145.32 1468.75,1009.44 1468.92,1009.62 "/>
     <polygon id="_286129008" class="fil1" points="1505.18,1010.73 2634.74,2146.61 2632.76,2148.31 2630.66,2149.78 2628.45,2151.01 2626.16,2152 2623.8,2152.76 2621.39,2153.28 2618.96,2153.57 2616.51,2153.62 2614.07,2153.44 2611.65,2153.03 2609.27,2152.39 2606.95,2151.51 2604.72,2150.4 2602.57,2149.06 2600.55,2147.49 2598.66,2145.69 1469.1,1009.81 1470.99,1011.61 1473.01,1013.18 1475.16,1014.52 1477.39,1015.63 1479.71,1016.5 1482.09,1017.15 1484.51,1017.56 1486.95,1017.74 1489.4,1017.69 1491.83,1017.4 1494.24,1016.87 1496.6,1016.12 1498.89,1015.12 1501.1,1013.89 1503.2,1012.43 "/>
     <polygon id="_286128432" class="fil1" points="1414.82,1032.2 2544.38,2168.08 2544.41,2168.13 1414.85,1032.25 "/>
     <polygon id="_286128456" class="fil1" points="1384.8,1029.58 2514.36,2165.46 2450.39,2225.11 1320.83,1089.23 "/>
     <polygon id="_286128648" class="fil1" points="1386.55,1031.52 2516.11,2167.41 2515.97,2167.26 1386.41,1031.38 "/>
     <polygon id="_286128816" class="fil1" points="1414.85,1032.25 2544.41,2168.13 2542.85,2169.46 2541.2,2170.61 2539.47,2171.58 2537.67,2172.36 2535.83,2172.95 2533.94,2173.36 2532.03,2173.59 2530.11,2173.63 2528.19,2173.49 2526.29,2173.17 2524.43,2172.66 2522.61,2171.97 2520.86,2171.1 2519.18,2170.05 2517.59,2168.82 2516.11,2167.41 1386.55,1031.52 1388.03,1032.94 1389.62,1034.17 1391.3,1035.22 1393.05,1036.09 1394.87,1036.78 1396.73,1037.28 1398.63,1037.61 1400.55,1037.75 1402.47,1037.7 1404.38,1037.48 1406.27,1037.07 1408.11,1036.47 1409.91,1035.69 1411.64,1034.73 1413.29,1033.58 "/>
     <polygon id="_286129080" class="fil1" points="859.165,670.402 1988.73,1806.28 1990.32,1808.29 1991.68,1810.42 1992.82,1812.64 1993.72,1814.95 1994.39,1817.32 1994.83,1819.73 1995.04,1822.17 1995.02,1824.62 1994.76,1827.06 1994.26,1829.47 1993.53,1831.84 1992.56,1834.14 1991.36,1836.36 1989.92,1838.48 1988.24,1840.49 858.68,704.604 860.359,702.602 861.8,700.48 863.004,698.26 863.97,695.958 864.701,693.591 865.196,691.178 865.456,688.739 865.482,686.29 865.275,683.848 864.835,681.435 864.162,679.066 863.259,676.76 862.124,674.535 860.76,672.41 "/>
     <polygon id="_286129272" class="fil1" points="858.68,704.604 1988.24,1840.49 1988.18,1840.47 858.621,704.585 "/>
     <polygon id="_286129032" class="fil1" points="858.621,704.585 1988.18,1840.47 1969.23,1860.88 839.668,724.995 "/>
     <polygon id="_286129344" class="fil1" points="1279.37,1253.13 2408.93,2389.01 2408.02,2390.16 2407.09,2391.29 2406.13,2392.4 2405.15,2393.47 2404.14,2394.53 2403.11,2395.55 2402.05,2396.55 2400.95,2397.53 2399.83,2398.48 2398.67,2399.41 2397.48,2400.32 2396.26,2401.2 2394.99,2402.05 2393.69,2402.88 2392.35,2403.69 2390.97,2404.48 1261.41,1268.6 1262.79,1267.81 1264.13,1267 1265.43,1266.17 1266.7,1265.31 1267.92,1264.43 1269.11,1263.53 1270.27,1262.6 1271.39,1261.65 1272.49,1260.67 1273.55,1259.67 1274.58,1258.64 1275.59,1257.59 1276.57,1256.51 1277.53,1255.41 1278.46,1254.28 "/>
     <polygon id="_286129560" class="fil1" points="1261.41,1268.6 2390.97,2404.48 2390.96,2404.67 2390.93,2404.85 2390.89,2405.02 2390.83,2405.18 2390.76,2405.33 2390.68,2405.47 2390.58,2405.6 2390.47,2405.73 1260.91,1269.84 1261.02,1269.72 1261.12,1269.59 1261.2,1269.45 1261.27,1269.3 1261.33,1269.14 1261.37,1268.97 1261.4,1268.79 "/>
     <polygon id="_286129416" class="fil1" points="1260.91,1269.84 2390.47,2405.73 2392.19,2407.74 2393.79,2409.81 2395.3,2411.93 2396.7,2414.11 2397.99,2416.34 2399.19,2418.61 2400.27,2420.93 2401.26,2423.28 2402.13,2425.66 2402.91,2428.08 2403.57,2430.52 2404.14,2432.99 2404.59,2435.47 2404.95,2437.97 2405.19,2440.48 2405.33,2442.99 1275.77,1307.11 1275.63,1304.59 1275.39,1302.08 1275.03,1299.59 1274.58,1297.1 1274.01,1294.64 1273.35,1292.2 1272.57,1289.78 1271.7,1287.4 1270.71,1285.04 1269.63,1282.73 1268.43,1280.46 1267.14,1278.23 1265.74,1276.05 1264.23,1273.92 1262.63,1271.85 "/>
     <polygon id="_286129392" class="fil1" points="1275.77,1307.11 2405.33,2442.99 2405.36,2444.26 2405.37,2445.52 2405.35,2446.78 2405.29,2448.05 2405.22,2449.31 2405.11,2450.57 2404.98,2451.83 2404.83,2453.08 2404.64,2454.34 2404.43,2455.59 2404.19,2456.84 2403.93,2458.08 2403.63,2459.32 2403.31,2460.55 2402.97,2461.78 2402.59,2463 2402.19,2464.21 2401.77,2465.42 2401.31,2466.62 2400.83,2467.81 2400.32,2468.99 2399.78,2470.17 2399.22,2471.33 2398.63,2472.48 2398.01,2473.63 2397.37,2474.76 2396.69,2475.88 2395.99,2476.99 2395.27,2478.09 2394.51,2479.18 2393.73,2480.25 2392.92,2481.31 1263.36,1345.42 1264.17,1344.37 1264.95,1343.29 1265.71,1342.21 1266.43,1341.11 1267.13,1340 1267.81,1338.88 1268.45,1337.75 1269.07,1336.6 1269.66,1335.45 1270.22,1334.28 1270.76,1333.11 1271.27,1331.93 1271.75,1330.73 1272.21,1329.54 1272.63,1328.33 1273.03,1327.11 1273.41,1325.89 1273.75,1324.67 1274.07,1323.43 1274.37,1322.2 1274.63,1320.95 1274.87,1319.71 1275.08,1318.46 1275.27,1317.2 1275.42,1315.95 1275.55,1314.69 1275.66,1313.43 1275.73,1312.16 1275.79,1310.9 1275.81,1309.64 1275.8,1308.37 "/>
     <polygon id="_286129584" class="fil1" points="1263.36,1345.42 2392.92,2481.31 2392.15,2482.27 2391.35,2483.24 2390.52,2484.21 2389.65,2485.18 2388.74,2486.16 2387.8,2487.12 2386.82,2488.08 2385.81,2489.04 2384.76,2489.98 2383.67,2490.91 2382.53,2491.83 2381.36,2492.73 2380.15,2493.61 2378.9,2494.47 2377.6,2495.31 2376.27,2496.12 2374.89,2496.9 2373.46,2497.65 2371.99,2498.37 2370.47,2499.06 2368.91,2499.71 2367.3,2500.32 2365.64,2500.9 2363.94,2501.42 2362.18,2501.91 2360.37,2502.34 2358.52,2502.73 2356.61,2503.06 2354.65,2503.34 2352.64,2503.57 2350.58,2503.73 2348.46,2503.84 1218.9,1367.96 1221.02,1367.85 1223.08,1367.69 1225.09,1367.46 1227.05,1367.18 1228.96,1366.85 1230.81,1366.46 1232.62,1366.02 1234.38,1365.54 1236.08,1365.01 1237.74,1364.44 1239.35,1363.83 1240.91,1363.18 1242.43,1362.49 1243.9,1361.77 1245.33,1361.02 1246.71,1360.23 1248.04,1359.42 1249.34,1358.59 1250.59,1357.73 1251.8,1356.85 1252.97,1355.95 1254.11,1355.03 1255.2,1354.1 1256.25,1353.16 1257.26,1352.2 1258.24,1351.24 1259.18,1350.27 1260.09,1349.3 1260.96,1348.33 1261.79,1347.36 1262.59,1346.39 "/>
     <polygon id="_286130472" class="fil1" points="1218.9,1367.96 2348.46,2503.84 2347.41,2503.87 2346.36,2503.88 2345.32,2503.87 2344.27,2503.84 2343.22,2503.79 2342.18,2503.73 2341.13,2503.64 2340.09,2503.54 2339.04,2503.42 2338,2503.28 2336.96,2503.13 2335.93,2502.95 2334.89,2502.75 2333.86,2502.54 2332.83,2502.31 2331.81,2502.06 1202.25,1366.18 1203.27,1366.43 1204.3,1366.66 1205.33,1366.87 1206.37,1367.07 1207.4,1367.24 1208.44,1367.4 1209.48,1367.54 1210.53,1367.66 1211.57,1367.76 1212.62,1367.85 1213.66,1367.91 1214.71,1367.96 1215.76,1367.98 1216.8,1367.99 1217.85,1367.98 "/>
     <polygon id="_286130208" class="fil1" points="1202.25,1366.18 2331.81,2502.06 2331.84,2502.4 2331.85,2502.73 2331.82,2503.03 2331.76,2503.3 2331.68,2503.56 2331.56,2503.79 2331.41,2504 2331.23,2504.18 1201.67,1368.3 1201.85,1368.11 1202,1367.91 1202.12,1367.68 1202.2,1367.42 1202.26,1367.14 1202.29,1366.84 1202.28,1366.52 "/>
     <polygon id="_286130448" class="fil1" points="1201.67,1368.3 2331.23,2504.18 2331.12,2504.28 2330.99,2504.37 2330.86,2504.45 2330.71,2504.51 2330.55,2504.56 2330.38,2504.6 2330.2,2504.62 2330.01,2504.64 1200.45,1368.75 1200.64,1368.74 1200.82,1368.72 1200.99,1368.68 1201.15,1368.63 1201.3,1368.57 1201.43,1368.49 1201.56,1368.4 "/>
     <polygon id="_286130496" class="fil1" points="1200.45,1368.75 2330.01,2504.64 2329.51,2506 2328.96,2507.34 2328.39,2508.68 2327.78,2510.01 2327.13,2511.32 2326.45,2512.62 2325.74,2513.91 2324.98,2515.19 2324.2,2516.44 2323.38,2517.69 2322.52,2518.91 2321.63,2520.12 2320.71,2521.32 2319.75,2522.49 2318.75,2523.64 2317.72,2524.78 1188.16,1388.89 1189.19,1387.76 1190.19,1386.61 1191.15,1385.43 1192.07,1384.24 1192.96,1383.03 1193.82,1381.81 1194.64,1380.56 1195.42,1379.3 1196.18,1378.03 1196.89,1376.74 1197.57,1375.44 1198.22,1374.13 1198.83,1372.8 1199.4,1371.46 1199.95,1370.11 "/>
     <polygon id="_286130136" class="fil1" points="1188.16,1388.89 2317.72,2524.78 2316.67,2525.87 2315.6,2526.94 2314.51,2527.97 2313.4,2528.96 2312.26,2529.93 2311.11,2530.86 2309.94,2531.76 2308.75,2532.63 2307.55,2533.46 2306.32,2534.26 2305.08,2535.02 2303.83,2535.76 2302.56,2536.46 2301.28,2537.13 2299.98,2537.76 2298.67,2538.36 2297.35,2538.93 2296.02,2539.46 2294.68,2539.96 2293.33,2540.43 2291.96,2540.87 2290.59,2541.27 2289.22,2541.64 2287.83,2541.97 2286.44,2542.27 2285.04,2542.54 2283.64,2542.77 2282.23,2542.97 2280.82,2543.14 2279.4,2543.27 2277.99,2543.37 2276.57,2543.44 1147.01,1407.56 1148.43,1407.49 1149.84,1407.39 1151.26,1407.26 1152.67,1407.09 1154.08,1406.89 1155.48,1406.66 1156.88,1406.39 1158.27,1406.09 1159.66,1405.75 1161.03,1405.39 1162.4,1404.98 1163.77,1404.55 1165.12,1404.08 1166.46,1403.58 1167.79,1403.05 1169.11,1402.48 1170.42,1401.88 1171.72,1401.24 1173,1400.58 1174.27,1399.88 1175.52,1399.14 1176.76,1398.38 1177.99,1397.58 1179.19,1396.74 1180.38,1395.88 1181.55,1394.98 1182.7,1394.05 1183.84,1393.08 1184.95,1392.08 1186.04,1391.05 1187.11,1389.99 "/>
     <polygon id="_286129800" class="fil1" points="1147.01,1407.56 2276.57,2543.44 2274.22,2543.48 2271.88,2543.42 2269.54,2543.27 2267.2,2543.03 2264.88,2542.69 2262.56,2542.26 2260.26,2541.74 2257.98,2541.13 2255.72,2540.42 2253.48,2539.62 2251.27,2538.73 2249.09,2537.75 2246.94,2536.67 2244.83,2535.49 2242.76,2534.22 2240.73,2532.86 1111.17,1396.98 1113.2,1398.34 1115.27,1399.61 1117.38,1400.78 1119.53,1401.86 1121.71,1402.85 1123.92,1403.74 1126.16,1404.54 1128.42,1405.25 1130.7,1405.86 1133,1406.38 1135.32,1406.81 1137.64,1407.14 1139.98,1407.39 1142.32,1407.54 1144.66,1407.59 "/>
     <polygon id="_286130064" class="fil1" points="1111.17,1396.98 2240.73,2532.86 2240.38,2532.97 2239.99,2533.02 2239.57,2533.03 2239.11,2533 2238.61,2532.91 2238.09,2532.79 2237.52,2532.62 2236.93,2532.41 1107.37,1396.52 1107.96,1396.74 1108.53,1396.91 1109.05,1397.03 1109.55,1397.11 1110.01,1397.15 1110.43,1397.14 1110.82,1397.09 "/>
     <polygon id="_286130016" class="fil1" points="1107.37,1396.52 2236.93,2532.41 2236.45,2533.37 2235.96,2534.33 2235.44,2535.28 2234.91,2536.22 2234.36,2537.16 2233.79,2538.08 2233.19,2539 2232.59,2539.91 2231.96,2540.81 2231.31,2541.7 2230.65,2542.58 2229.96,2543.46 2229.26,2544.32 2228.54,2545.17 2227.79,2546.01 2227.03,2546.84 1097.47,1410.96 1098.23,1410.13 1098.98,1409.29 1099.7,1408.44 1100.4,1407.58 1101.09,1406.7 1101.75,1405.82 1102.4,1404.93 1103.03,1404.03 1103.63,1403.12 1104.23,1402.2 1104.8,1401.27 1105.35,1400.34 1105.88,1399.4 1106.4,1398.45 1106.89,1397.49 "/>
     <polygon id="_286130088" class="fil1" points="1097.47,1410.96 2227.03,2546.84 2227.05,2546.89 1097.49,1411.01 "/>
     <polygon id="_286130376" class="fil1" points="1097.49,1411.01 2227.05,2546.89 2226.57,2547.39 1097.01,1411.51 "/>
     <polygon id="_286129848" class="fil1" points="1097.01,1411.51 2226.57,2547.39 2226.45,2547.51 1096.89,1411.62 "/>
     <polygon id="_286130592" class="fil1" points="1096.89,1411.62 2226.45,2547.51 2226.24,2547.71 1096.68,1411.83 "/>
     <polygon id="_286131048" class="fil1" points="1096.68,1411.83 2226.24,2547.71 2226.13,2547.82 1096.57,1411.94 "/>
     <polygon id="_286131072" class="fil1" points="1096.57,1411.94 2226.13,2547.82 2225.86,2548.07 1096.3,1412.18 "/>
     <polygon id="_286131096" class="fil1" points="1096.3,1412.18 2225.86,2548.07 2225.74,2548.17 1096.18,1412.29 "/>
     <polygon id="_286130688" class="fil1" points="1096.18,1412.29 2225.74,2548.17 2225.48,2548.4 1095.92,1412.52 "/>
     <polygon id="_286130736" class="fil1" points="1095.92,1412.52 2225.48,2548.4 2225.36,2548.51 1095.8,1412.62 "/>
     <polygon id="_286131120" class="fil1" points="1095.8,1412.62 2225.36,2548.51 2225.24,2548.61 1095.68,1412.73 "/>
     <polygon id="_286130856" class="fil1" points="750.203,1102.23 1879.76,2238.11 1794.54,2159.63 664.98,1023.75 "/>
     <polygon id="_286131192" class="fil1" points="661.452,1027.62 1791.01,2163.5 1789.53,2164.91 1787.94,2166.14 1786.26,2167.19 1784.51,2168.06 1782.69,2168.75 1780.82,2169.25 1778.93,2169.58 1777.01,2169.72 1775.09,2169.68 1773.18,2169.45 1771.29,2169.04 1769.45,2168.45 1767.65,2167.67 1765.92,2166.7 1764.27,2165.55 1762.71,2164.22 633.154,1028.34 634.708,1029.67 636.358,1030.82 638.089,1031.78 639.885,1032.56 641.734,1033.16 643.621,1033.57 645.532,1033.79 647.452,1033.84 649.368,1033.7 651.265,1033.37 653.129,1032.87 654.945,1032.18 656.699,1031.31 658.379,1030.26 659.967,1029.03 "/>
     <polygon id="_286131744" class="fil1" points="1052.2,1429.63 2181.76,2565.52 2180.61,2565.34 2179.43,2565.13 2178.22,2564.88 2177,2564.59 2175.75,2564.27 2174.48,2563.91 2173.19,2563.52 2171.88,2563.1 2170.55,2562.63 2169.19,2562.14 2167.82,2561.61 2166.43,2561.05 2165.01,2560.46 2163.58,2559.83 2162.12,2559.17 2160.65,2558.48 1031.09,1422.6 1032.56,1423.29 1034.02,1423.95 1035.45,1424.57 1036.87,1425.17 1038.26,1425.73 1039.63,1426.26 1040.99,1426.75 1042.32,1427.21 1043.63,1427.64 1044.92,1428.03 1046.19,1428.39 1047.44,1428.71 1048.66,1429 1049.87,1429.24 1051.05,1429.46 "/>
     <polygon id="_286131936" class="fil1" points="824.799,1363.98 1954.36,2499.86 1952.54,2500.82 1950.69,2501.71 1948.81,2502.52 1946.92,2503.26 1945.01,2503.92 1943.08,2504.51 1941.13,2505.03 1939.17,2505.46 1937.2,2505.83 1935.23,2506.11 1933.25,2506.32 1931.27,2506.45 1929.28,2506.51 1927.3,2506.48 1925.32,2506.38 1923.35,2506.2 1921.39,2505.94 1919.44,2505.6 1917.51,2505.19 1915.59,2504.69 1913.69,2504.11 1911.81,2503.46 1909.95,2502.72 1908.12,2501.9 1906.32,2501 1904.54,2500.02 1902.8,2498.96 1901.1,2497.82 1899.43,2496.59 1897.8,2495.28 1896.22,2493.89 766.658,1358.01 768.244,1359.4 769.87,1360.71 771.538,1361.93 773.244,1363.08 774.983,1364.14 776.756,1365.12 778.558,1366.02 780.39,1366.84 782.247,1367.58 784.127,1368.23 786.028,1368.81 787.948,1369.3 789.884,1369.72 791.833,1370.06 793.795,1370.32 795.765,1370.5 797.742,1370.6 799.723,1370.62 801.706,1370.57 803.689,1370.44 805.67,1370.23 807.644,1369.94 809.612,1369.58 811.569,1369.15 813.516,1368.63 815.446,1368.04 817.36,1367.38 819.255,1366.64 821.128,1365.83 822.976,1364.94 "/>
     <polygon id="_286131600" class="fil1" points="827.754,1365.26 1957.31,2501.15 1956.93,2501.18 1956.57,2501.19 1956.23,2501.17 1955.91,2501.11 1955.62,2501.02 1955.36,2500.9 1955.12,2500.75 1954.9,2500.56 825.343,1364.68 825.557,1364.87 825.797,1365.02 826.062,1365.14 826.352,1365.23 826.667,1365.28 827.006,1365.31 827.368,1365.3 "/>
     <polygon id="_286131840" class="fil1" points="778.353,1273.91 1907.91,2409.79 1906.35,2410.2 1904.77,2410.55 1903.18,2410.85 1901.59,2411.1 1899.99,2411.3 1898.38,2411.44 1896.78,2411.54 1895.17,2411.58 1893.56,2411.57 1891.95,2411.51 1890.34,2411.4 1888.74,2411.24 1887.14,2411.02 1885.55,2410.76 1883.97,2410.44 1882.39,2410.07 1880.83,2409.65 1879.28,2409.18 1877.74,2408.65 1876.22,2408.07 1874.71,2407.45 1873.22,2406.77 1871.75,2406.04 1870.3,2405.26 1868.87,2404.42 1867.46,2403.54 1866.08,2402.6 1864.73,2401.61 1863.4,2400.57 1862.1,2399.48 1860.83,2398.34 731.271,1262.46 732.54,1263.6 733.84,1264.69 735.168,1265.73 736.524,1266.72 737.905,1267.65 739.31,1268.54 740.74,1269.37 742.19,1270.16 743.66,1270.89 745.15,1271.57 746.657,1272.19 748.18,1272.77 749.719,1273.29 751.27,1273.77 752.834,1274.19 754.408,1274.56 755.991,1274.87 757.583,1275.14 759.18,1275.36 760.783,1275.52 762.389,1275.63 763.999,1275.69 765.608,1275.7 767.218,1275.66 768.825,1275.56 770.429,1275.42 772.028,1275.22 773.623,1274.97 775.209,1274.67 776.786,1274.32 "/>
     <polygon id="_286132032" class="fil1" points="924.359,1395.59 2053.92,2531.47 2041.87,2542.6 2039.96,2544.29 2038,2545.87 2035.98,2547.34 2033.9,2548.71 2031.78,2549.98 2029.62,2551.13 2027.42,2552.19 2025.18,2553.13 2022.91,2553.97 2020.62,2554.7 2018.3,2555.32 2015.97,2555.84 2013.62,2556.24 2011.26,2556.54 2008.9,2556.72 2006.53,2556.8 2004.17,2556.76 2001.81,2556.62 1999.46,2556.36 1997.13,2555.99 1994.81,2555.51 1992.52,2554.91 1990.26,2554.2 1988.02,2553.38 1985.82,2552.44 1983.66,2551.39 1981.54,2550.22 1979.47,2548.94 1977.45,2547.54 1975.49,2546.03 1973.59,2544.4 844.026,1408.51 845.931,1410.15 847.894,1411.66 849.914,1413.06 851.984,1414.34 854.102,1415.51 856.263,1416.56 858.462,1417.5 860.697,1418.32 862.962,1419.03 865.255,1419.62 867.57,1420.11 869.903,1420.48 872.251,1420.73 874.608,1420.88 876.973,1420.92 879.34,1420.84 881.703,1420.66 884.062,1420.36 886.411,1419.96 888.745,1419.44 891.061,1418.82 893.353,1418.09 895.621,1417.25 897.857,1416.3 900.059,1415.25 902.222,1414.09 904.342,1412.83 906.416,1411.46 908.438,1409.98 910.405,1408.41 912.314,1406.72 "/>
     <polygon id="_286131768" class="fil1" points="925.82,1396.42 2055.38,2532.3 2055.16,2532.25 2054.96,2532.18 2054.76,2532.1 2054.58,2532 2054.4,2531.89 2054.23,2531.77 2054.07,2531.63 924.509,1395.74 924.668,1395.88 924.837,1396.01 925.015,1396.12 925.203,1396.22 925.399,1396.3 925.605,1396.37 "/>
     <polygon id="_286132080" class="fil1" points="593.261,990.355 1722.82,2126.24 1709.8,2140.26 580.237,1004.38 "/>
     <polygon id="_286131360" class="fil1" points="664.98,1023.75 1794.54,2159.63 1792.06,2162.31 662.497,1026.43 "/>
     <polygon id="_286131408" class="fil1" points="662.497,1026.43 1792.06,2162.31 1791.93,2162.46 1791.81,2162.61 1791.68,2162.76 1791.55,2162.91 1791.42,2163.06 1791.28,2163.21 1791.15,2163.35 1791.01,2163.5 661.452,1027.62 661.589,1027.47 661.724,1027.32 661.856,1027.18 661.988,1027.03 662.118,1026.88 662.246,1026.73 662.372,1026.58 "/>
     <polygon id="_286131720" class="fil1" points="1095.68,1412.73 2225.24,2548.61 2224.21,2549.6 2223.16,2550.56 2222.1,2551.49 2221.01,2552.39 2219.91,2553.27 2218.8,2554.11 2217.67,2554.92 2216.52,2555.71 2215.36,2556.46 2214.18,2557.18 2212.99,2557.88 2211.79,2558.54 2210.58,2559.18 2209.35,2559.78 2208.12,2560.35 2206.87,2560.9 2205.61,2561.41 2204.35,2561.9 2203.07,2562.35 2201.79,2562.78 2200.5,2563.17 2199.2,2563.53 2197.89,2563.87 2196.58,2564.17 2195.26,2564.45 2193.94,2564.69 2192.62,2564.9 2191.29,2565.09 2189.96,2565.24 2188.62,2565.36 2187.29,2565.45 2185.95,2565.52 1056.39,1429.63 1057.73,1429.57 1059.06,1429.48 1060.4,1429.36 1061.73,1429.2 1063.06,1429.02 1064.38,1428.81 1065.7,1428.56 1067.02,1428.29 1068.33,1427.99 1069.64,1427.65 1070.94,1427.29 1072.23,1426.89 1073.51,1426.47 1074.79,1426.01 1076.05,1425.53 1077.31,1425.02 1078.56,1424.47 1079.79,1423.9 1081.02,1423.29 1082.23,1422.66 1083.43,1422 1084.62,1421.3 1085.8,1420.58 1086.96,1419.82 1088.11,1419.04 1089.24,1418.23 1090.35,1417.39 1091.45,1416.51 1092.54,1415.61 1093.6,1414.68 1094.65,1413.72 "/>
     <polygon id="_286132200" class="fil1" points="1056.39,1429.63 2185.95,2565.52 2185.42,2565.53 2184.9,2565.54 2184.38,2565.55 2183.86,2565.55 2183.33,2565.55 2182.81,2565.54 2182.29,2565.53 2181.76,2565.52 1052.2,1429.63 1052.73,1429.65 1053.25,1429.66 1053.77,1429.67 1054.3,1429.67 1054.82,1429.67 1055.34,1429.66 1055.86,1429.65 "/>
     <polygon id="_286132344" class="fil1" points="580.237,1004.38 1709.8,2140.26 1709.64,2140.46 1709.48,2140.65 1709.31,2140.84 1709.15,2141.03 1708.98,2141.22 1708.81,2141.41 1708.64,2141.6 1708.46,2141.78 578.905,1005.9 579.08,1005.71 579.251,1005.53 579.421,1005.34 579.589,1005.15 579.754,1004.96 579.917,1004.77 580.078,1004.58 "/>
     <polygon id="_286132848" class="fil1" points="578.905,1005.9 1708.46,2141.78 1706.57,2143.58 1704.54,2145.15 1702.4,2146.49 1700.17,2147.6 1697.85,2148.48 1695.47,2149.12 1693.05,2149.53 1690.61,2149.71 1688.16,2149.66 1685.73,2149.37 1683.32,2148.85 1680.96,2148.09 1678.67,2147.1 1676.46,2145.87 1674.36,2144.4 1672.38,2142.7 542.817,1006.82 544.8,1008.52 546.904,1009.99 549.11,1011.21 551.402,1012.21 553.759,1012.96 556.166,1013.49 558.603,1013.78 561.051,1013.83 563.495,1013.65 565.914,1013.24 568.29,1012.6 570.606,1011.72 572.845,1010.61 574.985,1009.27 577.011,1007.7 "/>
     <polygon id="_286132128" class="fil1" points="1031.09,1422.6 2160.65,2558.48 2137.83,2581.64 2136,2583.4 2134.1,2585.05 2132.14,2586.59 2130.12,2588.01 2128.04,2589.32 2125.91,2590.51 2123.73,2591.59 2121.52,2592.55 2119.26,2593.41 2116.97,2594.14 2114.66,2594.77 2112.32,2595.28 2109.96,2595.67 2107.59,2595.96 2105.21,2596.12 2102.83,2596.18 2100.44,2596.12 2098.06,2595.95 2095.68,2595.66 2093.32,2595.27 2090.98,2594.76 2088.66,2594.13 2086.37,2593.39 2084.11,2592.54 2081.88,2591.58 2079.7,2590.51 2077.56,2589.32 2075.47,2588.02 2073.44,2586.6 2071.46,2585.07 2069.55,2583.43 939.988,1447.55 941.9,1449.19 943.875,1450.72 945.91,1452.13 948,1453.43 950.139,1454.62 952.322,1455.7 954.548,1456.66 956.809,1457.51 959.102,1458.25 961.422,1458.87 963.764,1459.39 966.124,1459.78 968.498,1460.07 970.88,1460.24 973.266,1460.3 975.652,1460.24 978.033,1460.07 980.403,1459.79 982.761,1459.39 985.099,1458.88 987.414,1458.26 989.701,1457.52 991.955,1456.67 994.172,1455.71 996.349,1454.63 998.479,1453.44 1000.56,1452.13 1002.58,1450.71 1004.54,1449.17 1006.44,1447.52 1008.27,1445.76 "/>
     <polygon id="_286132536" class="fil1" points="1320.83,1089.23 2450.39,2225.11 2450.43,2226.34 2450.45,2227.57 2450.45,2228.81 2450.43,2230.04 2450.4,2231.28 2450.35,2232.52 2450.28,2233.76 2450.2,2235.01 2450.1,2236.25 2449.98,2237.5 2449.84,2238.75 2449.68,2240 2449.51,2241.26 2449.32,2242.52 2449.12,2243.78 2448.9,2245.04 2448.66,2246.3 2448.4,2247.57 2448.13,2248.83 2447.84,2250.1 2447.54,2251.37 2447.22,2252.65 2446.88,2253.92 2446.53,2255.2 2446.16,2256.48 2445.78,2257.76 2445.38,2259.04 2444.97,2260.32 2444.54,2261.6 2444.09,2262.89 2443.63,2264.18 2443.16,2265.47 1313.6,1129.59 1314.07,1128.3 1314.53,1127.01 1314.98,1125.72 1315.41,1124.44 1315.82,1123.15 1316.22,1121.87 1316.6,1120.59 1316.97,1119.32 1317.32,1118.04 1317.66,1116.76 1317.98,1115.49 1318.28,1114.22 1318.57,1112.95 1318.84,1111.68 1319.1,1110.42 1319.34,1109.16 1319.56,1107.89 1319.76,1106.63 1319.95,1105.38 1320.12,1104.12 1320.28,1102.87 1320.42,1101.62 1320.54,1100.37 1320.64,1099.12 1320.72,1097.88 1320.79,1096.64 1320.84,1095.4 1320.88,1094.16 1320.89,1092.92 1320.89,1091.69 1320.87,1090.46 "/>
     <polygon id="_286132320" class="fil1" points="1313.6,1129.59 2443.16,2265.47 2442.31,2267.71 2441.45,2269.97 2440.56,2272.25 2439.64,2274.55 2438.7,2276.86 2437.73,2279.19 2436.74,2281.53 2435.71,2283.88 2434.65,2286.23 2433.56,2288.59 2432.43,2290.95 2431.26,2293.32 2430.06,2295.67 2428.82,2298.03 2427.54,2300.38 2426.22,2302.72 1296.66,1166.84 1297.98,1164.5 1299.26,1162.15 1300.5,1159.79 1301.7,1157.43 1302.87,1155.07 1304,1152.71 1305.09,1150.35 1306.15,1147.99 1307.18,1145.65 1308.17,1143.31 1309.14,1140.98 1310.08,1138.67 1311,1136.37 1311.89,1134.09 1312.75,1131.83 "/>
     <polygon id="_286132680" class="fil1" points="879.797,763.061 2009.36,1898.94 2010.79,1900.41 2012.04,1901.99 2013.11,1903.65 2014,1905.4 2014.7,1907.21 2015.23,1909.06 2015.58,1910.96 2015.74,1912.87 2015.72,1914.79 2015.51,1916.7 2015.13,1918.6 2014.55,1920.45 2013.8,1922.26 2012.85,1924 2011.72,1925.66 2010.4,1927.23 880.844,791.349 882.161,789.779 883.292,788.116 884.235,786.375 884.994,784.569 885.566,782.714 885.955,780.821 886.159,778.908 886.179,776.988 886.016,775.074 885.672,773.181 885.145,771.323 884.436,769.515 883.547,767.77 882.477,766.104 881.226,764.529 "/>
     <polygon id="_286133472" class="fil1" points="880.844,791.349 2010.4,1927.23 2010.36,1927.22 880.798,791.333 "/>
     <polygon id="_286133280" class="fil1" points="1296.66,1166.84 2426.22,2302.72 2426.98,2304.62 2427.62,2306.7 2428.12,2308.94 2428.51,2311.33 2428.78,2313.86 2428.94,2316.52 2428.98,2319.29 2428.93,2322.16 2428.78,2325.12 2428.53,2328.16 2428.2,2331.27 2427.78,2334.42 2427.28,2337.61 2426.71,2340.83 2426.07,2344.07 2425.36,2347.3 2424.59,2350.53 2423.77,2353.73 2422.89,2356.89 2421.97,2360.01 2421,2363.06 2420,2366.04 2418.96,2368.93 2417.9,2371.73 2416.81,2374.41 2415.7,2376.97 2414.58,2379.39 2413.45,2381.66 2412.32,2383.77 2411.18,2385.71 2410.05,2387.46 2408.93,2389.01 1279.37,1253.13 1280.49,1251.58 1281.62,1249.83 1282.76,1247.89 1283.89,1245.78 1285.02,1243.51 1286.14,1241.09 1287.25,1238.53 1288.34,1235.85 1289.4,1233.05 1290.44,1230.16 1291.44,1227.18 1292.41,1224.12 1293.33,1221.01 1294.21,1217.85 1295.03,1214.65 1295.8,1211.42 1296.51,1208.19 1297.15,1204.95 1297.72,1201.73 1298.22,1198.54 1298.64,1195.38 1298.98,1192.28 1299.22,1189.24 1299.37,1186.28 1299.43,1183.41 1299.38,1180.63 1299.22,1177.98 1298.95,1175.45 1298.56,1173.05 1298.06,1170.81 1297.42,1168.74 "/>
    </g>
    <path id="_385694656" class="fil1" d="M880.798 791.333l-7.7067 8.29961c23.3351,21.8268 46.1563,43.3902 68.856,65.0918 15.7169,-6.95197 32.5311,-10.5756 55.8685,-12.1583 15.1193,-1.02638 30.5103,0.479528 46.6477,2.05984 26.9315,2.6374 56.2654,5.50748 85.6359,-5.53583 4.05945,-3.8126 4.28622,-3.98977 30.6059,-28.6323 5.32559,-4.98662 10.6843,-9.96024 16.0276,-14.9516l-9.5315 -10.2638 -0.0472441 0.0165354c-7.52127,-8.10119 -7.05355,-20.7673 1.04764,-28.2886l0.897638 -0.783071 39.2327 -37.2827 -18.9543 -20.4118 -0.0590552 0.0200788c-9.59174,-10.3299 -8.9941,-26.4815 1.33701,-36.0744 0.373229,-0.346063 0.754725,-0.676772 1.14331,-0.998032l76.6217 -72.8138c10.187,-9.69213 26.3032,-9.29056 35.9941,0.896457 6.34607,6.67087 165.41,170.077 289.367,300.313 9.69213,10.187 -7.50473,33.724 -17.6929,43.4162l-70.9418 67.4162 0.034252 0.0578741c-10.2177,9.70985 -26.3764,9.29883 -36.0862,-0.918898 -0.467717,-0.491339 -0.911812,-0.998032 -1.33228,-1.51772l-13.024 -14.0256 -39.9213 37.937 0.0283465 0.0448819c-8.01379,7.61457 -20.6847,7.29213 -28.2992,-0.721654 -0.366142,-0.38504 -0.714567,-0.78189 -1.04528,-1.18937l-0.703938 -0.758268 -63.9709 59.6552c0.514961,13.0878 -2.07756,26.589 -7.23071,40.3548 -4.44449,11.8795 -9.76891,24.789 -16.9382,37.2544 8.87009,19.2579 -5.39292,70.8615 -17.2854,86.2843 -4.80473,6.22914 -10.4906,11.341 -17.9575,15.4713 -0.0271654,0.514961 -0.19252,0.933072 -0.500788,1.24606 9.40749,10.5532 14.3906,23.8299 14.8595,37.2674 0.470079,13.4669 -3.63662,27.1063 -12.411,38.3126 -8.02323,10.2508 -21.5693,21.7347 -44.4662,22.5343 -5.58071,0.194882 -11.191,-0.39567 -16.6453,-1.77992 0.125197,0.947245 -0.0578741,1.66181 -0.578741,2.1189 -0.28937,0.291733 -0.698032,0.441733 -1.2189,0.457087 -2.61024,7.2756 -6.70276,14.1461 -12.2906,20.1402 -11.0693,11.8701 -26.0091,18.1347 -41.1567,18.6638 -12.489,0.434646 -25.1268,-3.06614 -35.8347,-10.5756 -0.88819,0.340158 -2.17441,0.164173 -3.80079,-0.458268 -2.49449,5.16142 -5.79213,10.037 -9.89646,14.439l0.0177165 0.0448819 -0.486615 0.504331 -0.113386 0.111024 -0.209055 0.20315 -0.116929 0.112205 -0.266929 0.246851 -0.116929 0.105118 -0.257481 0.226772 -0.124016 0.106299 -0.121654 0.103937c-10.8768,10.728 -25.0122,16.4055 -39.2906,16.9075 -1.39488,0.0496063 -2.79095,0.0484252 -4.18583,0 -6.10276,-0.842127 -13.2083,-3.27047 -21.111,-7.03701l-22.8177 23.1614c-19.1351,19.4244 -50.843,19.3288 -70.1292,0.0413386 -13.3205,-13.3228 -17.3894,-32.4319 -12.3248,-49.3796 -0.583465,-0.127559 -1.0748,-0.400394 -1.46102,-0.831497l-12.0449 11.1331c-20.0232,18.5091 -50.843,19.3288 -70.1292,0.0413386 -11.1898,-11.1898 -16.1504,-26.7732 -14.4307,-41.4992 -1.05945,0.138189 -1.87441,-0.0437008 -2.41063,-0.584646 -0.230315,-0.201969 -0.411024,-0.437008 -0.544489,-0.703938 -19.2898,10.6524 -43.4941,8.74253 -59.6811,-7.44568 -19.2851,-19.2862 -20.2205,-51.7796 -0.0413386,-70.128l13.3181 -12.1099c-0.0212599,-0.121654 -0.034252,-0.248032 -0.0413386,-0.380315 -16.6583,4.5815 -35.2855,0.367323 -48.3201,-12.652 -19.298,-19.2732 -19.3158,-50.8311 -0.0413386,-70.128l29.5099 -29.5453c0.527953,-0.529134 1.06654,-1.0441 1.61221,-1.5437 -1.51536,-2.38701 -2.83937,-4.6004 -3.95906,-6.62245 -4.50591,-8.14016 -7.39961,-41.9611 -6.95197,-51.1937l-85.2225 -78.4749 -2.48268 2.67402c-0.330709,0.407481 -0.679134,0.80315 -1.04528,1.18937 -7.61457,8.0126 -20.2854,8.33623 -28.2981,0.720473l0.0271654 -0.0448819 -39.9201 -37.9359 -13.024 14.0268c-0.421654,0.518504 -0.864568,1.02402 -1.33228,1.51654 -9.71103,10.2177 -25.8685,10.6299 -36.0874,0.918898l0.034252 -0.056693 -70.9418 -67.4174c-10.187,-9.69213 -10.5886,-25.8083 -0.896457,-35.9953 123.957,-130.237 266.224,-301.063 272.57,-307.734 9.69095,-10.187 25.8071,-10.5886 35.9953,-0.897638l76.6205 72.815c0.388583,0.320079 0.770079,0.651969 1.14331,0.999213 10.3311,9.59056 10.9287,25.7421 1.33701,36.0733l-0.0590552 -0.0188977 -18.9532 20.4106 39.2315 37.2815c0.305906,0.251575 0.604725,0.512599 0.897638,0.784253 8.10119,7.52127 8.57009,20.1874 1.04764,28.2874l-0.046063 -0.0153543z"/>
   </g>
  </g>
  <path class="fil2" d="M1024 0c565.538,0 1024,458.462 1024,1024 0,565.538 -458.462,1024 -1024,1024 -565.538,0 -1024,-458.462 -1024,-1024 0,-565.538 458.462,-1024 1024,-1024z"/>
  <path class="fil3" d="M871.39 798.042l-0.291733 -0.305906c-69.3378,74.6823 -138.803,149.414 -208.174,224.123l87.2788 80.367c-0.447638,9.23387 2.44488,43.0548 6.95197,51.1949 31.6843,57.2103 226.521,266.765 295.048,276.214 1.39488,0.0484252 2.79095,0.0496063 4.18465,0 14.2795,-0.501969 28.415,-6.17953 39.2918,-16.9075l0.121654 -0.103937 0.124016 -0.106299 0.257481 -0.226772 0.116929 -0.105118 0.266929 -0.246851 0.116929 -0.112205 0.209055 -0.20315 0.114567 -0.111024 -0.00236221 -0.0011811c0.164173,-0.164173 0.328347,-0.330709 0.487796,-0.501969l-0.0177165 -0.046063c4.57205,-4.90394 8.14253,-10.3949 10.7197,-16.213 11.2996,9.04607 25.1445,13.2839 38.8134,12.8067 15.1465,-0.527953 30.0862,-6.79252 41.1555,-18.6626 6.30119,-6.75827 10.6996,-14.6315 13.2177,-22.9441 5.72717,1.54606 11.6386,2.21339 17.5158,2.00788 22.8969,-0.799607 36.4441,-12.2835 44.4662,-22.5343 8.77442,-11.2063 12.8811,-24.8445 12.411,-38.3126 -0.478347,-13.7185 -5.66221,-27.2658 -15.4524,-37.9217 8.00906,-4.22953 14.015,-9.53268 19.0524,-16.063 12.3354,-15.9992 27.2232,-70.93 16.1929,-88.3028 -36.3969,-57.3213 -210.715,-246.939 -277.308,-226.148 -49.1244,-48.254 -96.7926,-93.8198 -146.869,-140.633z"/>
  <path class="fil4" d="M1296.65 1166.86c7.17284,-12.4701 12.4984,-25.3855 16.9465,-37.2685 5.15315,-13.7669 7.74568,-27.2681 7.23071,-40.3559l79.9749 -74.5772c-69.3792,-74.7166 -138.838,-149.463 -208.195,-224.143 -10.5047,10.0854 -21.2681,19.9914 -31.9004,29.9457 -26.3197,24.6425 -26.5465,24.8197 -30.6059,28.6323 -29.3705,11.0433 -58.7056,8.17323 -85.6359,5.53583 -16.1386,-1.58032 -31.5284,-3.08622 -46.6477,-2.05984 -24.2835,1.64646 -41.5052,5.50394 -57.7772,13.0205l-3.61772 1.81063c-17.9551,8.97875 -45.6709,26.8984 -62.217,48.5681 -12.9886,17.0138 -12.7488,25.2567 -9.44292,39.3756 4.12323,17.6114 14.7555,27.2575 28.363,31.5095 27.7028,8.65631 53.0906,-1.12441 75.7052,-15.4583 17.7047,-14.152 69.4524,-36.0532 90.2351,-27.287 79.4658,33.5197 206.129,172.883 236.502,220.717 0.396851,0.625985 0.827953,1.46811 1.08307,2.03386z"/>
  <path class="fil5" d="M576.847 947.199c-7.6004,7.98898 -7.28623,20.6268 0.702756,28.226l55.6311 52.8674 -0.0271654 0.0448819c8.0126,7.61457 20.6835,7.29095 28.2981,-0.721654 0.366142,-0.38504 0.714567,-0.78189 1.04528,-1.18937l218.301 -235.093 0.046063 0.0153543c7.52127,-8.10001 7.05355,-20.7662 -1.04764,-28.2874 -0.292914,-0.271654 -0.592914,-0.532678 -0.896457,-0.783071l-60.0851 -57.0993c-7.9878,-7.6004 -20.6256,-7.28504 -28.226,0.702756 -4.97599,5.23111 -116.538,139.189 -213.742,241.317z"/>
  <path class="fil5" d="M1471.15 951.108c7.59922,7.98898 7.28504,20.6268 -0.703938,28.226l-55.6311 52.8674 0.0283465 0.0448819c-8.01379,7.61457 -20.6847,7.29213 -28.2992,-0.721654 -0.366142,-0.38504 -0.714567,-0.78189 -1.0441,-1.18937l-218.301 -235.093 -0.0472441 0.0153543c-7.52127,-8.10001 -7.05237,-20.7662 1.04764,-28.2874 0.294095,-0.271654 0.592914,-0.531496 0.897638,-0.783071l60.0839 -57.0993c7.98898,-7.6004 20.6268,-7.28504 28.226,0.702756 4.97717,5.23229 116.539,139.189 213.743,241.317z"/>
  <path class="fil6" d="M984.25 1335.55c17.5417,-6.37678 38.1095,-2.49567 52.1244,11.5169l0 0.0011811c19.2851,19.2851 19.1776,50.7036 0.0413386,70.128l-28.141 28.5662c-19.1362,19.4244 -50.8441,19.3276 -70.1292,0.0425197l0 -0.0011811c-14.1579,-14.1591 -17.8654,-34.8532 -11.2642,-52.5437l-14.5677 13.4658c-20.0244,18.5091 -50.843,19.3276 -70.128,0.0425197l-0.0011811 -0.0011811c-12.0496,-12.0496 -16.8756,-29.1933 -13.9169,-44.8748 -19.7788,12.9177 -45.9756,11.8158 -63.1489,-5.35748l-0.0011811 -0.0011811c-19.2851,-19.2862 -20.2205,-51.7796 -0.0413386,-70.128l13.9429 -12.678c-16.826,4.88032 -35.778,0.729922 -48.9863,-12.463l-0.0011811 -0.0011811c-19.2969,-19.2732 -19.3146,-50.8311 -0.0413386,-70.128l29.5099 -29.5453c19.2744,-19.2969 50.8323,-19.3158 70.1292,-0.0413386l0 0.0011811c15.6638,15.6437 18.6248,39.3815 8.87717,58.0867l8.0752 -7.34292c20.1791,-18.3484 50.843,-19.3264 70.128,-0.0413386l0.0011811 0c14.6008,14.6008 18.678,36.7748 11.0421,54.6473 16.148,-3.78662 33.5516,0.253937 46.0855,12.7878l0.0011811 0.0011811c14.9516,14.9516 18.7772,37.7469 10.4102,55.8615z"/>
  <path class="fil7" d="M928.399 1265.97c-5.0067,-3.90945 -114.477,88.6902 -103.056,98.7119 9.55276,9.62481 107.355,-94.3737 103.056,-98.7119z"/>
  <path class="fil8" d="M1005.87 1294.41c5.00552,-3.90945 117.409,92.1107 105.987,102.132 -9.55394,9.62481 -110.287,-97.793 -105.987,-102.132z"/>
  <path class="fil8" d="M1057.08 1228.54c5.0067,-3.90945 156.015,129.738 144.594,139.76 -9.55394,9.62481 -148.893,-135.421 -144.594,-139.76z"/>
  <path class="fil8" d="M1110.25 1132.37c5.0067,-3.90827 162.001,127.54 150.579,137.562 -9.55276,9.62481 -154.878,-133.223 -150.579,-137.562z"/>
  <path class="fil7" d="M984.794 1335.76c-5.22402,-5.36811 -68.3079,51.9685 -60.5504,59.6977 7.88032,9.97914 64.6997,-54.254 60.5504,-59.6977z"/>
  <path class="fil7" d="M841.237 1217.57c-5.06339,-5.52048 -69.8067,49.9359 -62.2796,57.8906 7.58268,10.2059 66.267,-52.3276 62.2796,-57.8906z"/>
  <path class="fil9" d="M471.013 903.348c-9.69213,10.187 -9.29056,26.3032 0.896457,35.9953l70.943 67.4162 -0.0354331 0.0578741c10.2177,9.71103 26.3764,9.29883 36.0874,-0.918898 0.466536,-0.49252 0.910631,-0.998032 1.33228,-1.51772l278.384 -299.797 0.0590552 0.0200788c9.59174,-10.3299 8.9941,-26.4815 -1.33583,-36.0733 -0.37441,-0.347244 -0.755906,-0.679134 -1.14449,-0.999213l-76.6205 -72.8138c-10.1882,-9.69213 -26.3032,-9.29056 -35.9953,0.896457 -6.34607,6.67087 -148.614,177.497 -272.57,307.734z"/>
  <path class="fil9" d="M1576.99 907.257c9.69095,10.1882 9.28938,26.3032 -0.897638,35.9953l-70.9418 67.4174 0.034252 0.056693c-10.2177,9.71103 -26.3764,9.29883 -36.0862,-0.918898 -0.467717,-0.49252 -0.911812,-0.998032 -1.33228,-1.51654l-278.384 -299.798 -0.0602363 0.0200788c-9.59056,-10.3299 -8.9941,-26.4815 1.33701,-36.0733 0.373229,-0.347244 0.754725,-0.679134 1.14331,-0.999213l76.6217 -72.8138c10.187,-9.69213 26.3032,-9.29056 35.9941,0.896457 6.34607,6.67087 148.614,177.499 272.571,307.734z"/>
 </g>
</svg>
